<svg xmlns="http://www.w3.org/2000/svg" viewBox="0 0 1100 700" width="1100" height="700" role="img" aria-labelledby="title desc">
  <title id="title">AI integration wedges and dial</title>
  <desc id="desc">Five touching wedges forming a half-circle above a dial.</desc>

  <g id="wedges" stroke-linejoin="round">
    <path d="M 340.000 560.000 A 210 210 0 0 1 380.106 436.565 L 459.390 494.168 A 112 112 0 0 0 438.000 560.000 Z" fill="#009CDE" fill-opacity="0.85" stroke="rgba(6,18,40,0.18)" stroke-width="1"/>
    <path d="M 380.106 436.565 A 210 210 0 0 1 485.106 360.278 L 515.390 453.482 A 112 112 0 0 0 459.390 494.168 Z" fill="#34B2E8" fill-opacity="0.85" stroke="rgba(6,18,40,0.18)" stroke-width="1"/>
    <path d="M 485.106 360.278 A 210 210 0 0 1 614.894 360.278 L 584.610 453.482 A 112 112 0 0 0 515.390 453.482 Z" fill="#FFB300" fill-opacity="0.85" stroke="rgba(6,18,40,0.18)" stroke-width="1"/>
    <path d="M 614.894 360.278 A 210 210 0 0 1 719.894 436.565 L 640.610 494.168 A 112 112 0 0 0 584.610 453.482 Z" fill="#FF8C2B" fill-opacity="0.85" stroke="rgba(6,18,40,0.18)" stroke-width="1"/>
    <path d="M 719.894 436.565 A 210 210 0 0 1 760.000 560.000 L 662.000 560.000 A 112 112 0 0 0 640.610 494.168 Z" fill="#DF407A" fill-opacity="0.85" stroke="rgba(6,18,40,0.18)" stroke-width="1"/>
  </g>

  <g id="dial">
    <circle cx="550" cy="560" r="106" fill="rgba(10,26,58,0.42)" stroke="rgba(106,159,232,0.28)" stroke-width="2"/>

    <line x1="468" y1="560" x2="452" y2="560" stroke="rgba(136,174,235,0.75)" stroke-width="2" stroke-linecap="round"/>
    <line x1="464.999" y1="537.224" x2="455.339" y2="534.636" stroke="rgba(136,174,235,0.45)" stroke-width="1.2" stroke-linecap="round"/>
    <line x1="473.79" y1="516" x2="465.13" y2="511" stroke="rgba(136,174,235,0.45)" stroke-width="1.2" stroke-linecap="round"/>
    <line x1="492.017" y1="502.017" x2="480.704" y2="490.704" stroke="rgba(136,174,235,0.75)" stroke-width="2" stroke-linecap="round"/>
    <line x1="506" y1="483.79" x2="501" y2="475.13" stroke="rgba(136,174,235,0.45)" stroke-width="1.2" stroke-linecap="round"/>
    <line x1="527.224" y1="474.999" x2="524.636" y2="465.339" stroke="rgba(136,174,235,0.45)" stroke-width="1.2" stroke-linecap="round"/>
    <line x1="550" y1="478" x2="550" y2="462" stroke="rgba(136,174,235,0.75)" stroke-width="2" stroke-linecap="round"/>
    <line x1="572.776" y1="474.999" x2="575.364" y2="465.339" stroke="rgba(136,174,235,0.45)" stroke-width="1.2" stroke-linecap="round"/>
    <line x1="594" y1="483.79" x2="599" y2="475.13" stroke="rgba(136,174,235,0.45)" stroke-width="1.2" stroke-linecap="round"/>
    <line x1="607.983" y1="502.017" x2="619.296" y2="490.704" stroke="rgba(136,174,235,0.75)" stroke-width="2" stroke-linecap="round"/>
    <line x1="626.21" y1="516" x2="634.87" y2="511" stroke="rgba(136,174,235,0.45)" stroke-width="1.2" stroke-linecap="round"/>
    <line x1="635.001" y1="537.224" x2="644.661" y2="534.636" stroke="rgba(136,174,235,0.45)" stroke-width="1.2" stroke-linecap="round"/>
    <line x1="632" y1="560" x2="648" y2="560" stroke="rgba(136,174,235,0.75)" stroke-width="2" stroke-linecap="round"/>

    <circle cx="550" cy="560" r="74" fill="#0b1f47" stroke="rgba(106,159,232,0.56)" stroke-width="2.2"/>
    <polygon points="568,560 550,474 532,560" fill="rgba(0,156,222,0.9)"/>
    <circle cx="550" cy="560" r="13" fill="#102b5c" stroke="rgba(136,174,235,0.75)" stroke-width="2"/>
  </g>
</svg>
