<svg xmlns="http://www.w3.org/2000/svg" viewBox="0 0 224 180" width="224" height="180" role="img" aria-labelledby="title desc">
  <title id="title">Teachers group</title>
  <desc id="desc">Three teacher astronauts.</desc>

  <g transform="translate(28 108)">
    <ellipse cx="22" cy="68" rx="9" ry="4" fill="#37474f"/>
    <ellipse cx="38" cy="68" rx="9" ry="4" fill="#37474f"/>
    <rect x="16" y="55" width="12" height="14" rx="6" fill="#e65100"/>
    <rect x="32" y="55" width="12" height="14" rx="6" fill="#e65100"/>
    <rect x="13" y="34" width="34" height="24" rx="9" fill="#e65100"/>
    <rect x="21" y="39" width="18" height="12" rx="4" fill="#bf360c"/>
    <circle cx="26" cy="45" r="2.2" fill="#ff8a65"/>
    <circle cx="34" cy="45" r="2.2" fill="#ef5350"/>
    <rect x="2" y="34" width="13" height="9" rx="4.5" fill="#e65100"/>
    <rect x="45" y="34" width="13" height="9" rx="4.5" fill="#e65100"/>
    <circle cx="8" cy="46" r="5.5" fill="#cfd8dc"/>
    <circle cx="52" cy="46" r="5.5" fill="#cfd8dc"/>
    <ellipse cx="30" cy="33" rx="15" ry="5" fill="#b0bec5"/>
    <circle cx="30" cy="19" r="18" fill="#eceff1"/>
    <ellipse cx="30" cy="19" rx="12" ry="10" fill="#e65100" opacity="0.84"/>
    <ellipse cx="24" cy="13" rx="4.5" ry="3" fill="rgba(255,255,255,0.55)" transform="rotate(-25 24 13)"/>
    <circle cx="30" cy="19" r="18" fill="none" stroke="#90a4ae" stroke-width="1.5"/>
  </g>

  <g transform="translate(82 100)">
    <ellipse cx="22" cy="68" rx="9" ry="4" fill="#37474f"/>
    <ellipse cx="38" cy="68" rx="9" ry="4" fill="#37474f"/>
    <rect x="16" y="55" width="12" height="14" rx="6" fill="#e65100"/>
    <rect x="32" y="55" width="12" height="14" rx="6" fill="#e65100"/>
    <rect x="13" y="34" width="34" height="24" rx="9" fill="#e65100"/>
    <rect x="21" y="39" width="18" height="12" rx="4" fill="#bf360c"/>
    <circle cx="26" cy="45" r="2.2" fill="#ff8a65"/>
    <circle cx="34" cy="45" r="2.2" fill="#ef5350"/>
    <rect x="2" y="34" width="13" height="9" rx="4.5" fill="#e65100"/>
    <rect x="45" y="34" width="13" height="9" rx="4.5" fill="#e65100"/>
    <circle cx="8" cy="46" r="5.5" fill="#cfd8dc"/>
    <circle cx="52" cy="46" r="5.5" fill="#cfd8dc"/>
    <ellipse cx="30" cy="33" rx="15" ry="5" fill="#b0bec5"/>
    <circle cx="30" cy="19" r="18" fill="#eceff1"/>
    <ellipse cx="30" cy="19" rx="12" ry="10" fill="#e65100" opacity="0.84"/>
    <ellipse cx="24" cy="13" rx="4.5" ry="3" fill="rgba(255,255,255,0.55)" transform="rotate(-25 24 13)"/>
    <circle cx="30" cy="19" r="18" fill="none" stroke="#90a4ae" stroke-width="1.5"/>
  </g>

  <g transform="translate(136 108)">
    <ellipse cx="22" cy="68" rx="9" ry="4" fill="#37474f"/>
    <ellipse cx="38" cy="68" rx="9" ry="4" fill="#37474f"/>
    <rect x="16" y="55" width="12" height="14" rx="6" fill="#e65100"/>
    <rect x="32" y="55" width="12" height="14" rx="6" fill="#e65100"/>
    <rect x="13" y="34" width="34" height="24" rx="9" fill="#e65100"/>
    <rect x="21" y="39" width="18" height="12" rx="4" fill="#bf360c"/>
    <circle cx="26" cy="45" r="2.2" fill="#ff8a65"/>
    <circle cx="34" cy="45" r="2.2" fill="#ef5350"/>
    <rect x="2" y="34" width="13" height="9" rx="4.5" fill="#e65100"/>
    <rect x="45" y="34" width="13" height="9" rx="4.5" fill="#e65100"/>
    <circle cx="8" cy="46" r="5.5" fill="#cfd8dc"/>
    <circle cx="52" cy="46" r="5.5" fill="#cfd8dc"/>
    <ellipse cx="30" cy="33" rx="15" ry="5" fill="#b0bec5"/>
    <circle cx="30" cy="19" r="18" fill="#eceff1"/>
    <ellipse cx="30" cy="19" rx="12" ry="10" fill="#e65100" opacity="0.84"/>
    <ellipse cx="24" cy="13" rx="4.5" ry="3" fill="rgba(255,255,255,0.55)" transform="rotate(-25 24 13)"/>
    <circle cx="30" cy="19" r="18" fill="none" stroke="#90a4ae" stroke-width="1.5"/>
  </g>
</svg>
